<svg version="1.2" xmlns="http://www.w3.org/2000/svg" viewBox="0 0 1542 1543" width="1542" height="1543">
	<title>couchbase_logo_black-svg</title>
	<style>
		.s0 { fill: #ea2328 } 
	</style>
	<path id="Logo-Icon" fill-rule="evenodd" class="s0" d="m1069.3 59.8c93.1 39 177.5 95.8 248.6 167.4c71.1 71.6 127.4 156.6 165.7 250c38.3 93.3 57.9 193.4 57.5 294.3c0 312.3-188.2 593.8-476.7 712.9c-288.5 119-620.3 52.1-840.3-169.4c-219.9-221.6-284.6-554-163.8-842c120.8-288 403.2-474.6 715.3-472.6c100.8 0.3 200.6 20.5 293.7 59.4zm224.3 545.8c-0.1-11.3-2.1-22.5-6-33.1c-3.8-10.6-9.5-20.5-16.6-29.2c-7.2-8.8-15.7-16.2-25.3-22.1c-9.7-5.9-20.2-10.1-31.3-12.5q-17-2.2-34.2-4q-17.2-1.7-34.4-2.8q-17.2-1.1-34.4-1.6q-17.2-0.6-34.5-0.5c-4.6 0.1-9.2 1.1-13.4 3c-4.2 1.9-8 4.7-11.1 8.1c-3.1 3.4-5.5 7.4-7 11.8c-1.5 4.4-2.1 9-1.8 13.7v210.5c-93.1-0.4-174.2-5.7-267.8-5.7c-93.6 0-174.6 5.7-267.9 5.7v-210.5c0.3-4.7-0.3-9.3-1.8-13.7c-1.5-4.4-3.9-8.4-7-11.8c-3.1-3.4-6.9-6.2-11.1-8.1c-4.2-1.9-8.8-2.9-13.4-3q-17.3-0.1-34.6 0.4q-17.3 0.6-34.6 1.7q-17.3 1.1-34.5 2.8q-17.2 1.7-34.4 4c-11 2.4-21.5 6.6-31.2 12.5c-9.6 5.9-18.2 13.3-25.3 22.1c-7.2 8.7-12.8 18.6-16.6 29.2c-3.9 10.6-5.9 21.8-6.1 33.1v301c-0.5 11.5 1.1 22.9 4.7 33.8c3.6 10.8 9.2 20.9 16.4 29.8c7.3 8.8 16.1 16.3 26 21.9c9.9 5.7 20.8 9.5 32.1 11.2c90.3 15.9 279.9 25.5 438.7 25.5c158.8 0 348.3-9.6 438.6-25.5c11.3-1.7 22.2-5.5 32.1-11.1c10-5.7 18.8-13.1 26-22c7.3-8.8 12.9-19 16.5-29.8c3.6-10.9 5.1-22.3 4.6-33.8z" />
	<g id="Logo-Type">
	</g>
</svg>