<?xml version="1.0" encoding="UTF-8" standalone="no" ?>
<!DOCTYPE svg PUBLIC "-//W3C//DTD SVG 1.1//EN" "http://www.w3.org/Graphics/SVG/1.1/DTD/svg11.dtd">
<svg xmlns="http://www.w3.org/2000/svg" xmlns:xlink="http://www.w3.org/1999/xlink" version="1.1" width="200" height="200" viewBox="0 0 200 200" xml:space="preserve">
<desc>Created with Fabric.js 6.5.3</desc>
<defs>
</defs>
<g transform="matrix(1.9762 0 0 1.9762 99.0463 98.8915)"  >
<path style="stroke: none; stroke-width: 1; stroke-dasharray: none; stroke-linecap: butt; stroke-dashoffset: 0; stroke-linejoin: miter; stroke-miterlimit: 4; fill: rgb(0,90,167); fill-rule: nonzero; opacity: 1;"  transform=" translate(-97.4482, -93.3089)" d="M 82.81 89.31 C 74.69 98.98 75.13 111.36 83.3 120.67 C 94.58 133.52 114.78 132.68 126.58 121.7 C 136.43 112.53 140.72 98.43 137.54 85.19 C 134.69 73.32 127.13 64.4 116.49 57.99 Q 113.35 56.1 110.25 55.17 Q 82.11 46.78 60.61 65.95 C 58.12 68.17 55.92 71.37 53.23 73.94 Q 52.83 74.32 52.64 74.83 Q 51.8 77.1 49.87 78.47 C 49.4086 78.8008 48.7852 78.791 48.3344 78.446 C 47.8835 78.101 47.7113 77.5018 47.91 76.97 C 51.17 68.18 57.56 61.11 65 55.68 C 92.21 35.82 136.01 47.47 145.26 81.55 C 150.07 99.26 145.4 120.66 129.85 131.88 C 113.99 143.32 92.53 144.08 77.62 130.97 C 67.62 122.17 62.46 107.43 66.16 94.58 C 70.83 78.33 85.09 68.39 102.49 71.69 C 115.52 74.17 124.49 88.17 121 100.94 C 117.94 112.14 108.28 117.81 97.04 113.44 C 88.59 110.16 87.48 93.8 98.48 95.53 C 101.26 95.97 101.13 98.47 101.64 100.56 Q 101.76 101.06 102.27 101.15 Q 104.38 101.55 105.57 100.3 C 116.26 89.1 93.09 77.08 82.81 89.31 Z" stroke-linecap="round" />
</g>
</svg>